HIERARCHY
ROOT Hips
{
	OFFSET -3.958830 18.904000 13.208200
	CHANNELS 6 Xposition Yposition Zposition Zrotation Yrotation Xrotation 
	JOINT LHipJoint
	{
		OFFSET 0.000000 0.000000 0.000000
		CHANNELS 3 Zrotation Yrotation Xrotation
		JOINT LeftUpLeg
		{
			OFFSET 1.800000 -1.400000 0.085000
			CHANNELS 3 Zrotation Yrotation Xrotation
			JOINT LeftLeg
			{
				OFFSET 2.215000 -6.000000 0.000000
				CHANNELS 3 Zrotation Yrotation Xrotation
				JOINT LeftFoot
				{
					OFFSET 2.500000 -6.900000 0.000000
					CHANNELS 3 Zrotation Yrotation Xrotation
					JOINT LeftToeBase
					{
						OFFSET 0.200000 -0.500000 1.950000
						CHANNELS 3 Zrotation Yrotation Xrotation
						End Site
						{
							OFFSET 0.000000 0.000000 0.000000
						}
					}
				}
			}
		}
	}
	JOINT RHipJoint
	{
		OFFSET 0.000000 0.000000 0.000000
		CHANNELS 3 Zrotation Yrotation Xrotation
		JOINT RightUpLeg
		{
			OFFSET -1.800000 -1.400000 0.085000
			CHANNELS 3 Zrotation Yrotation Xrotation
			JOINT RightLeg
			{
				OFFSET -2.215000 -6.000000 0.000000
				CHANNELS 3 Zrotation Yrotation Xrotation
				JOINT RightFoot
				{
					OFFSET -2.500000 -6.900000 0.000000
					CHANNELS 3 Zrotation Yrotation Xrotation
					JOINT RightToeBase
					{
						OFFSET -0.200000 -0.500000 1.950000
						CHANNELS 3 Zrotation Yrotation Xrotation
						End Site
						{
							OFFSET 0.000000 0.000000 0.000000
						}
					}
				}
			}
		}
	}
	JOINT LowerBack
	{
		OFFSET 0.000000 0.000000 0.000000
		CHANNELS 3 Zrotation Yrotation Xrotation
		JOINT Spine
		{
			OFFSET -0.087000 1.940000 -0.288900
			CHANNELS 3 Zrotation Yrotation Xrotation
			JOINT Spine1
			{
				OFFSET 0.000000 1.950000 0.060000
				CHANNELS 3 Zrotation Yrotation Xrotation
				JOINT Neck
				{
					OFFSET 0.000000 0.000000 0.000000
					CHANNELS 3 Zrotation Yrotation Xrotation
					JOINT Neck1
					{
						OFFSET 0.000000 1.600000 0.340000
						CHANNELS 3 Zrotation Yrotation Xrotation
						JOINT Head
						{
							OFFSET 0.000000 1.667000 -0.240000
							CHANNELS 3 Zrotation Yrotation Xrotation
							End Site
							{
								OFFSET 0.000000 0.000000 0.000000
							}
						}
					}
				}
				JOINT LeftShoulder
				{
					OFFSET 0.000000 0.000000 0.000000
					CHANNELS 3 Zrotation Yrotation Xrotation
					JOINT LeftArm
					{
						OFFSET 2.700000 1.550000 -0.730000
						CHANNELS 3 Zrotation Yrotation Xrotation
						JOINT LeftForeArm
						{
							OFFSET 5.450000 0.000000 0.000000
							CHANNELS 3 Zrotation Yrotation Xrotation
							JOINT LeftHand
							{
								OFFSET 3.450000 0.000000 0.000000
								CHANNELS 3 Zrotation Yrotation Xrotation
								JOINT LeftHandIndex1
								{
									OFFSET 0.750000 0.000000 0.000000
									CHANNELS 3 Zrotation Yrotation Xrotation
									End Site
									{
										OFFSET 0.000000 0.000000 0.000000
									}
								}
							}
						}
					}
				}
				JOINT RightShoulder
				{
					OFFSET 0.000000 0.000000 0.000000
					CHANNELS 3 Zrotation Yrotation Xrotation
					JOINT RightArm
					{
						OFFSET -2.700000 1.550000 -0.730000
						CHANNELS 3 Zrotation Yrotation Xrotation
						JOINT RightForeArm
						{
							OFFSET -5.450000 0.000000 0.000000
							CHANNELS 3 Zrotation Yrotation Xrotation
							JOINT RightHand
							{
								OFFSET -3.450000 0.000000 0.000000
								CHANNELS 3 Zrotation Yrotation Xrotation
								JOINT RightHandIndex1
								{
									OFFSET -0.750000 0.000000 0.000000
									CHANNELS 3 Zrotation Yrotation Xrotation
									End Site
									{
										OFFSET 0.000000 0.000000 0.000000
									}
								}
							}
						}
					}
				}
			}
		}
	}
}
MOTION
Frames: 9
Frame Time: 0.016667
0.747300 17.615160 -2.459210 1.179520 -41.676807 2.390526 -14.873964 11.508009 5.229715 -6.876915 -8.711125 -42.921496 4.006652 7.058120 47.816227 0.380935 7.810286 1.887144 0.090400 -0.393790 0.189200 18.546881 -11.449496 2.649803 -3.712805 1.705405 -10.949656 6.413970 -5.978917 18.150879 -0.180409 -4.022989 2.948117 -0.292170 0.429140 0.507970 -4.593920 1.418888 -8.223956 17.052233 5.435371 21.960643 -2.097935 8.236100 6.325337 3.561683 -5.392907 -9.677803 -7.985852 6.976825 48.575056 -11.683370 5.367460 7.903100 -10.589624 8.293591 0.144466 -50.541330 5.070855 -10.027193 -3.915324 -37.159407 -0.083789 -3.810111 3.281697 0.353280 0.285390 -0.083500 0.153890 2.758310 2.578576 7.391514 55.733660 22.645351 7.561511 -136.649188 49.943216 -116.194282 2.243706 -1.873962 -0.093390 -0.086920 0.089370 -0.049740 
0.805830 17.589010 -2.427250 1.251123 -39.209325 2.517985 -14.767384 11.497448 5.004912 -7.976445 -8.130566 -41.253253 3.917145 4.937728 37.036509 -0.113003 5.607888 2.675022 0.041360 -0.465730 0.173830 18.627478 -11.660483 2.775298 -2.464887 1.622003 -9.739498 6.817422 -6.452963 19.942041 -0.218064 -4.364871 2.858579 -0.292880 0.503800 0.494800 -4.785112 1.815477 -8.080967 18.081770 6.174682 20.615172 -1.306808 8.676252 7.705149 3.318088 -3.730528 -9.589731 -4.762682 4.681189 48.065111 -11.671560 4.824980 8.285490 -8.982660 7.668864 0.301233 -48.430146 3.381444 -9.049158 -5.272665 -41.293435 0.689340 -3.837159 3.322850 0.361660 0.343540 -0.134790 0.147210 1.800458 1.778193 7.576589 55.937342 22.578410 7.553690 -133.679972 51.471739 -113.790315 2.217263 -1.779011 -0.166670 -0.025090 0.129550 -0.074030 
0.856040 17.526890 -2.386760 2.983843 -36.070865 2.357524 -14.794494 11.400783 4.905085 -10.100745 -8.129325 -39.595403 2.583429 3.603589 25.982794 -0.383866 3.615196 3.415989 0.014230 -0.444670 0.119340 18.621659 -11.666788 2.783265 -2.492465 1.405001 -8.811575 8.101843 -6.943759 20.125987 -0.244744 -4.643976 2.786580 -0.285250 0.554360 0.522540 -4.657133 1.883449 -8.000272 15.808292 7.407627 18.448661 1.102106 8.931681 8.558953 2.743890 -1.977929 -9.239520 -1.877806 2.315143 46.750222 -12.088870 4.403200 9.408360 -7.418547 7.496569 0.333969 -46.449701 1.137520 -7.673231 -5.846204 -44.537215 1.436941 -3.871710 3.461309 0.264470 0.418160 -0.161800 0.164040 1.729053 0.562561 7.343475 55.273004 21.796308 7.564252 -130.618915 53.283377 -111.103824 2.226668 -1.744580 -0.133740 -0.039770 0.131140 -0.032180 
0.913470 17.443790 -2.364840 4.141451 -33.807013 2.751991 -14.840307 11.267595 4.800269 -11.098181 -7.817493 -38.558508 -0.174188 3.146380 16.437915 -0.502238 2.413351 3.909898 -0.001910 -0.391200 0.077890 18.616928 -11.654114 2.775177 -1.518370 0.990059 -8.143464 8.034853 -6.825861 19.297139 -0.237972 -4.659225 2.861146 -0.267560 0.615890 0.496910 -4.543159 2.030867 -7.922182 13.899368 8.809875 16.525335 3.268275 9.637409 9.327246 2.319973 -0.138876 -9.139176 1.183470 -0.031004 45.122262 -12.221310 3.934050 10.105450 -6.423711 6.718749 0.672355 -44.299746 -0.338383 -6.699475 -6.017793 -48.851507 2.096899 -3.873758 3.543730 0.165600 0.484100 -0.186470 0.205860 1.899058 -0.004904 7.174164 53.929569 20.612192 6.765797 -126.396560 54.816861 -106.642295 2.246824 -1.594438 -0.116900 0.006870 0.098980 0.019150 
0.995100 17.350390 -2.340760 5.363020 -31.452108 3.161519 -14.887171 11.077356 4.787460 -12.275517 -7.963821 -37.813182 -2.413299 2.727929 9.357204 -0.593238 1.897875 4.127130 0.036820 -0.319140 0.089080 18.636220 -11.571840 2.691228 -0.960053 0.651191 -7.894790 7.596903 -6.591062 18.417970 -0.243564 -4.621995 2.883448 -0.211360 0.615180 0.497640 -4.531545 2.101242 -7.825682 12.757857 9.529575 14.156754 4.716592 9.560963 10.803190 1.910075 0.848857 -8.990255 2.314555 -1.975878 44.132797 -13.006800 3.055280 9.673680 -5.800528 5.439542 1.112623 -41.934442 -1.830486 -5.765048 -5.121568 -52.304944 2.013432 -3.857893 3.615421 0.130130 0.508710 -0.185490 0.233710 2.433767 0.039862 6.775566 52.355369 20.197767 6.107239 -121.300759 56.097284 -100.532475 2.231259 -1.398504 -0.111120 0.014150 0.062400 0.029780 
1.084800 17.238930 -2.315630 6.209515 -29.408955 3.584700 -14.880606 10.912330 4.832996 -12.992291 -8.278255 -37.876595 -4.134541 2.659024 6.471221 -0.647565 1.866504 4.171226 0.021670 -0.336860 0.073870 18.686837 -11.526353 2.635946 -0.675470 0.431097 -7.759539 7.080454 -6.340293 17.491890 -0.211698 -4.557591 2.911912 -0.186580 0.660940 0.475090 -4.646479 2.208917 -7.787085 12.946927 9.848870 12.721462 4.779034 9.472500 11.510179 1.375755 1.227618 -8.801203 2.541390 -2.662503 43.017849 -12.219790 2.204350 9.789680 -5.103518 4.492897 1.379811 -38.858748 -3.175921 -4.603373 -3.428216 -55.942859 1.543572 -3.878864 3.640148 0.116750 0.536720 -0.230210 0.233130 2.853381 0.171249 6.436204 51.061950 19.876709 5.579976 -115.525525 57.899864 -93.653707 2.184018 -1.030574 -0.155380 0.051490 0.079970 0.023620 
1.185120 17.126950 -2.286550 6.090411 -28.491557 3.620124 -14.753081 10.842743 4.860826 -13.036357 -8.272620 -38.423064 -3.717245 2.735472 8.096425 -0.667464 1.886192 4.165963 0.059200 -0.294600 0.077070 18.801688 -11.663413 2.678211 -0.132479 0.352842 -7.573504 5.939320 -6.070255 17.696050 -0.226508 -4.511596 2.927279 -0.152520 0.654670 0.448730 -5.018609 2.554884 -7.813168 16.038339 9.920209 13.134511 2.741751 9.881868 11.621110 1.041961 0.922669 -8.793954 1.684684 -2.972133 42.778402 -10.757070 0.841350 8.927690 -5.012085 3.712669 1.467469 -35.004020 -3.573322 -3.979192 -0.431084 -60.180592 0.224841 -3.822274 3.664652 0.146180 0.503880 -0.223600 0.256120 3.073492 0.755528 6.531290 49.938374 18.739697 4.263314 -110.015712 60.377845 -87.551960 2.111674 -0.491239 -0.170740 0.078630 0.059500 0.026600 
1.279460 17.011880 -2.253120 5.754697 -27.698626 4.317136 -14.651573 10.736751 4.948244 -12.866784 -8.669017 -40.231162 -1.904307 2.905065 12.965341 -0.671156 2.159895 4.040413 0.032050 -0.362040 0.067380 18.913644 -11.729582 2.676286 0.441058 0.646041 -8.554708 4.967892 -5.916697 19.003971 -0.190102 -4.503316 2.884012 -0.172160 0.670570 0.478080 -5.358519 2.825440 -7.786104 18.827908 9.815395 12.537069 0.566493 9.932804 11.301058 0.747860 0.546719 -8.316776 0.533925 -3.238830 42.223054 -10.344660 -0.051440 9.415070 -5.658123 3.416595 1.413921 -31.048889 -3.492260 -3.282148 4.394622 -64.071371 -2.348153 -3.882111 3.693549 0.138030 0.519460 -0.265450 0.213900 3.955904 0.615735 6.036701 49.706596 17.582414 2.396970 -101.817215 65.030848 -77.626880 1.773148 0.665049 -0.175680 0.044900 0.116500 0.007800 
1.369260 16.948290 -2.224360 4.875125 -26.795209 4.090252 -14.530129 10.794958 4.978217 -11.795257 -8.717261 -41.124408 0.185449 3.172576 20.011986 -0.670182 2.856540 3.754301 0.036300 -0.409190 0.074580 19.009303 -11.800270 2.732344 1.026482 1.100690 -9.092814 4.389415 -6.019804 21.471742 -0.213846 -4.597999 2.815392 -0.170430 0.653240 0.452280 -5.670444 2.908793 -7.837081 22.923355 8.253337 14.253513 -2.916803 9.375045 9.578222 0.523787 -0.978052 -7.620604 -2.448359 -1.987909 42.955548 -8.749340 -0.864850 7.965470 -7.080877 3.665275 1.443651 -27.985107 -1.553245 -3.316992 12.776939 -68.355157 -7.771170 -3.869055 3.589491 0.238730 0.465050 -0.275550 0.184230 5.178611 1.000827 4.625495 49.538580 16.642583 -6.835509 -76.402969 78.987949 -57.544338 0.847851 1.758605 -0.233410 0.068880 0.163030 -0.041080 
